<svg version="1.2" xmlns="http://www.w3.org/2000/svg" viewBox="0 0 200 200" width="500" height="500">
	<style>
		.s0 { fill: #ffffff;stroke: #000000;stroke-miterlimit:10;stroke-width: 0 } 
		.s1 { fill: #000000;stroke: #000000;stroke-miterlimit:10 } 
		.s2 { fill: #ffffff;stroke: #000000;stroke-miterlimit:10 } 
		.s3 { fill: #ffffff;stroke: #ffffff;stroke-miterlimit:10;stroke-width: 5 } 
	</style>
	<g id="Layer 1">
		<g id="Folder 1">
			<path id="Shape 1" fill-rule="evenodd" class="s0" d="m100 182c-45.35 0-82-36.65-82-82 0-45.35 36.65-82 82-82 45.35 0 82 36.65 82 82 0 45.35-36.65 82-82 82z"/>
			<path id="Shape 2" fill-rule="evenodd" class="s1" d="m100.68 169.7c-38.16 0-69.01-30.85-69.01-69.02 0-38.16 30.85-69.01 69.01-69.01 38.17 0 69.02 30.85 69.02 69.01 0 38.17-30.85 69.02-69.02 69.02z"/>
			<path id="Shape 2 copy" fill-rule="evenodd" class="s2" d="m99.32 128.7c-16.25 0-29.39-13.13-29.39-29.38 0-16.25 13.14-29.39 29.39-29.39 16.25 0 29.38 13.14 29.38 29.39 0 16.25-13.13 29.38-29.38 29.38z"/>
			<path id="Shape 3" fill-rule="evenodd" class="s3" d="m172.41 36.86l-18.27 68.99z"/>
			<path id="Shape 4" fill-rule="evenodd" class="s3" d="m154.9 104.03l-18.26 31.29z"/>
			<path id="Shape 2 copy 2" fill-rule="evenodd" class="s1" d="m99.63 103.73c-2.26 0-4.1-1.83-4.1-4.1 0-2.26 1.84-4.1 4.1-4.1 2.27 0 4.1 1.84 4.1 4.1 0 2.27-1.83 4.1-4.1 4.1z"/>
		</g>
	</g>
</svg>